<svg width="16" height="16" viewBox="0 0 16 16" fill="none" xmlns="http://www.w3.org/2000/svg">
<path opacity="0.5" d="M6 6.66663C6.55229 6.66663 7 6.21891 7 5.66663C7 5.11434 6.55229 4.66663 6 4.66663C5.44771 4.66663 5 5.11434 5 5.66663C5 6.21891 5.44771 6.66663 6 6.66663Z" fill="#3049AB" fill-opacity="0.8"/>
<path opacity="0.5" d="M2.89331 11.3333H9.10666C8.54666 10.9467 7.19333 10.5 5.99998 10.5C4.80664 10.5 3.45331 10.9467 2.89331 11.3333Z" fill="#3049AB" fill-opacity="0.8"/>
<path fill-rule="evenodd" clip-rule="evenodd" d="M8.33341 5.66671C8.33341 6.95337 7.28681 8.00004 6.00008 8.00004C4.71338 8.00004 3.66675 6.95337 3.66675 5.66671C3.66675 4.38005 4.71338 3.33337 6.00008 3.33337C7.28681 3.33337 8.33341 4.38005 8.33341 5.66671ZM7.00008 5.66671C7.00008 5.11336 6.55339 4.66671 6.00008 4.66671C5.44677 4.66671 5.00008 5.11336 5.00008 5.66671C5.00008 6.22005 5.44677 6.66671 6.00008 6.66671C6.55339 6.66671 7.00008 6.22005 7.00008 5.66671Z" fill="#3049AB" fill-opacity="0.8"/>
<path fill-rule="evenodd" clip-rule="evenodd" d="M1.33325 11.5C1.33325 9.94663 4.43994 9.16663 5.99992 9.16663C7.55992 9.16663 10.6666 9.94663 10.6666 11.5V12.6666H1.33325V11.5ZM5.99992 10.5C4.80656 10.5 3.45321 10.9466 2.89323 11.3333H9.10652C8.54652 10.9466 7.19319 10.5 5.99992 10.5Z" fill="#3049AB" fill-opacity="0.8"/>
<path d="M10.6934 9.20667C11.4667 9.76666 12 10.5133 12 11.5V12.6667H14.6667V11.5C14.6667 10.1533 12.3334 9.38667 10.6934 9.20667Z" fill="#3049AB" fill-opacity="0.8"/>
<path d="M10 8.00004C11.2867 8.00004 12.3333 6.95337 12.3333 5.66671C12.3333 4.38004 11.2867 3.33337 10 3.33337C9.64 3.33337 9.30667 3.42004 9 3.56671C9.42 4.16004 9.66667 4.88671 9.66667 5.66671C9.66667 6.44671 9.42 7.17337 9 7.76671C9.30667 7.91337 9.64 8.00004 10 8.00004Z" fill="#3049AB" fill-opacity="0.8"/>
</svg>
