<svg width="16" height="16" viewBox="0 0 16 16" fill="none" xmlns="http://www.w3.org/2000/svg">
<path opacity="0.5" d="M10 11.3333H6.00004V10.6667H3.33337V12.6667H12.6667V10.6667H10V11.3333Z" fill="#3049AB" fill-opacity="0.8"/>
<path opacity="0.5" d="M2.66663 9.33333H5.99996V7.33333H9.99996V9.33333H13.3333V6H2.66663V9.33333Z" fill="#3049AB" fill-opacity="0.8"/>
<path fill-rule="evenodd" clip-rule="evenodd" d="M13.3334 4.66667H10.6667V3.33333L9.33337 2H6.66671L5.33337 3.33333V4.66667H2.66671C1.93339 4.66667 1.33337 5.26668 1.33337 6V9.33333C1.33337 9.83333 1.60005 10.2533 2.00004 10.4867V12.6667C2.00004 13.4067 2.59338 14 3.33337 14H12.6667C13.4067 14 14 13.4067 14 12.6667V10.48C14.3934 10.2467 14.6667 9.82 14.6667 9.33333V6C14.6667 5.26668 14.0667 4.66667 13.3334 4.66667ZM6.66671 3.33333H9.33337V4.66667H6.66671V3.33333ZM3.33337 12.6667H12.6667V10.6667H10V11.3333H6.00004V10.6667H3.33337V12.6667ZM7.33337 10V8.66667H8.66671V10H7.33337ZM10 9.33333H13.3334V6H2.66671V9.33333H6.00004V7.33333H10V9.33333Z" fill="#3049AB" fill-opacity="0.8"/>
</svg>
