<svg width="16" height="16" viewBox="0 0 16 16" fill="none" xmlns="http://www.w3.org/2000/svg">
<path opacity="0.5" fill-rule="evenodd" clip-rule="evenodd" d="M8 7.33333H9.33333V8.66667H8V10H9.33333V11.3333H8V12.6667H13.3333V6H8V7.33333ZM10.6667 7.33333H12V8.66667H10.6667V7.33333ZM12 10H10.6667V11.3333H12V10Z" fill="#3049AB" fill-opacity="0.8"/>
<path fill-rule="evenodd" clip-rule="evenodd" d="M7.99992 4.66667H14.6666V14H1.33325V2H7.99992V4.66667ZM2.66659 12.6667H3.99992V11.3333H2.66659V12.6667ZM3.99992 10H2.66659V8.66667H3.99992V10ZM2.66659 7.33333H3.99992V6H2.66659V7.33333ZM3.99992 4.66667H2.66659V3.33333H3.99992V4.66667ZM5.33325 12.6667H6.66659V11.3333H5.33325V12.6667ZM6.66659 10H5.33325V8.66667H6.66659V10ZM5.33325 7.33333H6.66659V6H5.33325V7.33333ZM6.66659 4.66667H5.33325V3.33333H6.66659V4.66667ZM7.99992 12.6667H13.3333V6H7.99992V7.33333H9.33325V8.66667H7.99992V10H9.33325V11.3333H7.99992V12.6667Z" fill="#3049AB" fill-opacity="0.8"/>
<path d="M10.6667 7.33333H12.0001V8.66667H10.6667V7.33333Z" fill="#3049AB" fill-opacity="0.8"/>
<path d="M10.6667 10H12.0001V11.3333H10.6667V10Z" fill="#3049AB" fill-opacity="0.8"/>
</svg>
