<svg width="16" height="16" viewBox="0 0 16 16" fill="none" xmlns="http://www.w3.org/2000/svg">
<path fill-rule="evenodd" clip-rule="evenodd" d="M12.6667 2H12V0.666668H10.6667V2H5.33333V0.666668H4V2H3.33333C2.59334 2 2.00667 2.60001 2.00667 3.33333L2 12.6667C2 13.4 2.59334 14 3.33333 14H12.6667C13.4 14 14 13.4 14 12.6667V3.33333C14 2.60001 13.4 2 12.6667 2ZM12.6667 12.6667H3.33333V6H12.6667V12.6667ZM3.33333 4.66667H12.6667V3.33333H3.33333V4.66667Z" fill="#3049AB" fill-opacity="0.8"/>
<path d="M8.00008 7.33333H4.66675V10.6667H8.00008V7.33333Z" fill="#3049AB" fill-opacity="0.8"/>
<path opacity="0.5" d="M3.33325 3.33333H12.6666V4.66667H3.33325V3.33333Z" fill="#3049AB" fill-opacity="0.8"/>
</svg>
