<svg width="16" height="16" viewBox="0 0 16 16" fill="none" xmlns="http://www.w3.org/2000/svg">
<path opacity="0.5" d="M4.66675 8.17999V10.66L8.00008 12.48L11.3334 10.66V8.17999L8.00008 9.99999L4.66675 8.17999Z" fill="#3049AB" fill-opacity="0.8"/>
<path opacity="0.5" d="M3.45337 6.00002L8.00007 8.48L12.5467 6.00002L8.00007 3.52002L3.45337 6.00002Z" fill="#3049AB" fill-opacity="0.8"/>
<path fill-rule="evenodd" clip-rule="evenodd" d="M8.00008 2L0.666748 6L3.33341 7.45333V11.4533L8.00008 14L12.6667 11.4533V7.45333L14.0001 6.72667V11.3333H15.3334V6L8.00008 2ZM11.3334 10.66L8.00008 12.48L4.66675 10.66V8.18L8.00008 10L11.3334 8.18V10.66ZM3.45345 6L8.00008 8.48L12.5468 6L8.00008 3.52002L3.45345 6Z" fill="#3049AB" fill-opacity="0.8"/>
</svg>
