<svg width="16" height="16" viewBox="0 0 16 16" fill="none" xmlns="http://www.w3.org/2000/svg">
<path opacity="0.5" d="M13.3333 5.33333L7.99996 8.66666L2.66663 5.33333V12H13.3333V5.33333Z" fill="#3049AB" fill-opacity="0.8"/>
<path opacity="0.5" d="M13.3333 4H2.66663L7.99996 7.32667L13.3333 4Z" fill="#3049AB" fill-opacity="0.8"/>
<path fill-rule="evenodd" clip-rule="evenodd" d="M13.3334 13.3333C14.0667 13.3333 14.6667 12.7333 14.6667 12V4.00001C14.6667 3.26669 14.0667 2.66667 13.3334 2.66667H2.66671C1.93337 2.66667 1.33337 3.26669 1.33337 4.00001V12C1.33337 12.7333 1.93337 13.3333 2.66671 13.3333H13.3334ZM13.3334 4.00001L8.00004 7.32667L2.66671 4.00001H13.3334ZM8.00004 8.66667L2.66671 5.33334V12H13.3334V5.33334L8.00004 8.66667Z" fill="#3049AB" fill-opacity="0.8"/>
</svg>
