<svg width="24" height="24" viewBox="0 0 24 24" fill="none" xmlns="http://www.w3.org/2000/svg">
<g clip-path="url(#clip0)">
<path d="M23.9766 7.05608C23.9204 5.78086 23.7142 4.90416 23.4188 4.14449C23.114 3.33812 22.6452 2.61618 22.0309 2.01603C21.4308 1.40653 20.7041 0.932928 19.907 0.632942C19.143 0.337535 18.2709 0.131318 16.9956 0.0750937C15.7109 0.0141076 15.303 5.72205e-06 12.0446 5.72205e-06C8.78614 5.72205e-06 8.37829 0.0141076 7.09831 0.070332C5.8231 0.126556 4.9464 0.332957 4.18691 0.628181C3.38036 0.932928 2.65841 1.40177 2.05826 2.01603C1.44876 2.61618 0.975342 3.34288 0.675173 4.13992C0.379766 4.90416 0.173549 5.7761 0.117324 7.05131C0.0563382 8.33605 0.0422363 8.74391 0.0422363 12.0024C0.0422363 15.2608 0.0563382 15.6687 0.112563 16.9486C0.168787 18.2239 0.375187 19.1005 0.670595 19.8602C0.975342 20.6666 1.44876 21.3885 2.05826 21.9887C2.65841 22.5982 3.38512 23.0718 4.18215 23.3718C4.9464 23.6672 5.81834 23.8734 7.09373 23.9296C8.37352 23.986 8.78156 23.9999 12.04 23.9999C15.2985 23.9999 15.7063 23.986 16.9863 23.9296C18.2615 23.8734 19.1382 23.6672 19.8977 23.3718C21.5106 22.7482 22.7858 21.473 23.4094 19.8602C23.7047 19.096 23.9111 18.2239 23.9673 16.9486C24.0235 15.6687 24.0376 15.2608 24.0376 12.0024C24.0376 8.74391 24.0329 8.33605 23.9766 7.05608ZM21.8154 16.8549C21.7637 18.027 21.5669 18.6599 21.4028 19.0819C20.9995 20.1274 20.1697 20.9572 19.1241 21.3605C18.7022 21.5246 18.0646 21.7215 16.8971 21.7729C15.6312 21.8294 15.2516 21.8433 12.0494 21.8433C8.84713 21.8433 8.46272 21.8294 7.20142 21.7729C6.02931 21.7215 5.39638 21.5246 4.97442 21.3605C4.45411 21.1682 3.98051 20.8635 3.5961 20.465C3.19758 20.0758 2.89283 19.6069 2.70053 19.0866C2.53644 18.6647 2.33956 18.027 2.2881 16.8596C2.23169 15.5938 2.21777 15.2139 2.21777 12.0117C2.21777 8.80947 2.23169 8.42506 2.2881 7.16395C2.33956 5.99184 2.53644 5.3589 2.70053 4.93695C2.89283 4.41646 3.19758 3.94304 3.60086 3.55844C3.98985 3.15993 4.45869 2.85518 4.97918 2.66306C5.40114 2.49897 6.03884 2.30209 7.20618 2.25045C8.47206 2.19422 8.85189 2.18012 12.0539 2.18012C15.2609 2.18012 15.6406 2.19422 16.9019 2.25045C18.074 2.30209 18.7069 2.49897 19.1289 2.66306C19.6492 2.85518 20.1228 3.15993 20.5072 3.55844C20.9057 3.94762 21.2105 4.41646 21.4028 4.93695C21.5669 5.3589 21.7637 5.99642 21.8154 7.16395C21.8716 8.42982 21.8857 8.80947 21.8857 12.0117C21.8857 15.2139 21.8716 15.589 21.8154 16.8549Z" fill="#3049AB" fill-opacity="0.8"/>
<path d="M12.0447 5.83708C8.64098 5.83708 5.87939 8.59849 5.87939 12.0024C5.87939 15.4062 8.64098 18.1676 12.0447 18.1676C15.4485 18.1676 18.2099 15.4062 18.2099 12.0024C18.2099 8.59849 15.4485 5.83708 12.0447 5.83708ZM12.0447 16.0016C9.83653 16.0016 8.04541 14.2107 8.04541 12.0024C8.04541 9.79404 9.83653 8.0031 12.0447 8.0031C14.253 8.0031 16.0439 9.79404 16.0439 12.0024C16.0439 14.2107 14.253 16.0016 12.0447 16.0016Z" fill="#3049AB" fill-opacity="0.8"/>
<path d="M19.8932 5.59332C19.8932 6.38815 19.2487 7.03263 18.4537 7.03263C17.6589 7.03263 17.0144 6.38815 17.0144 5.59332C17.0144 4.7983 17.6589 4.15401 18.4537 4.15401C19.2487 4.15401 19.8932 4.7983 19.8932 5.59332Z" fill="#3049AB" fill-opacity="0.8"/>
</g>
<defs>
<clipPath id="clip0">
<rect width="24" height="24" fill="white"/>
</clipPath>
</defs>
</svg>
