<svg width="16" height="16" viewBox="0 0 16 16" fill="none" xmlns="http://www.w3.org/2000/svg">
<path opacity="0.5" fill-rule="evenodd" clip-rule="evenodd" d="M7.99996 2.66666C9.83996 2.66666 11.3333 4.15999 11.3333 6C11.3333 7.92 9.41329 10.7933 7.99996 12.5867C6.61332 10.8067 4.66663 7.9 4.66663 6C4.66663 4.15999 6.15995 2.66666 7.99996 2.66666ZM7.99996 4.33333C7.07996 4.33333 6.33329 5.08 6.33329 6C6.33329 6.92 7.07996 7.66666 7.99996 7.66666C8.91996 7.66666 9.66663 6.92 9.66663 6C9.66663 5.08 8.91996 4.33333 7.99996 4.33333Z" fill="#3049AB" fill-opacity="0.8"/>
<path fill-rule="evenodd" clip-rule="evenodd" d="M8.00004 1.33334C10.58 1.33334 12.6667 3.42 12.6667 6C12.6667 9.5 8.00004 14.6667 8.00004 14.6667C8.00004 14.6667 3.33337 9.5 3.33337 6C3.33337 3.42 5.42004 1.33334 8.00004 1.33334ZM11.3334 6C11.3334 4.16 9.84004 2.66667 8.00004 2.66667C6.16003 2.66667 4.66671 4.16 4.66671 6C4.66671 7.9 6.6134 10.8067 8.00004 12.5867C9.41337 10.7933 11.3334 7.92 11.3334 6Z" fill="#3049AB" fill-opacity="0.8"/>
<path d="M8.00004 7.66667C8.92051 7.66667 9.66671 6.92047 9.66671 6C9.66671 5.07953 8.92051 4.33334 8.00004 4.33334C7.07957 4.33334 6.33337 5.07953 6.33337 6C6.33337 6.92047 7.07957 7.66667 8.00004 7.66667Z" fill="#3049AB" fill-opacity="0.8"/>
</svg>
