<svg width="16" height="16" viewBox="0 0 16 16" fill="none" xmlns="http://www.w3.org/2000/svg">
<path opacity="0.5" d="M9.99333 3.06V3.33333C9.99333 4.06666 9.39333 4.66666 8.66 4.66666H7.32667V6C7.32667 6.36666 7.02667 6.66664 6.65999 6.66664H5.32666V7.99998H9.32667C9.69333 7.99998 9.99333 8.29998 9.99333 8.66664V10.6666H10.66C11.2533 10.6666 11.7533 11.06 11.9267 11.6C12.7933 10.6533 13.3333 9.38664 13.3333 7.99998C13.3333 5.76666 11.9467 3.84666 9.99333 3.06Z" fill="#3049AB" fill-opacity="0.8"/>
<path opacity="0.5" d="M5.99341 10.6667V10L2.80675 6.81335C2.72008 7.19335 2.66675 7.59335 2.66675 8.00002C2.66675 10.7134 4.70675 12.9534 7.32675 13.2867V12C6.59341 12 5.99341 11.4 5.99341 10.6667Z" fill="#3049AB" fill-opacity="0.8"/>
<path fill-rule="evenodd" clip-rule="evenodd" d="M7.99992 1.33331C4.31991 1.33331 1.33325 4.31997 1.33325 7.99998C1.33325 11.68 4.31991 14.6666 7.99992 14.6666C11.6799 14.6666 14.6666 11.68 14.6666 7.99998C14.6666 4.31997 11.6799 1.33331 7.99992 1.33331ZM7.32659 13.2866C4.70663 12.9533 2.66659 10.7132 2.66659 7.99998C2.66659 7.59331 2.71989 7.19331 2.80656 6.81331L5.99325 9.99998V10.6666C5.99325 11.4 6.59326 12 7.32659 12V13.2866ZM10.6599 10.6666C11.2599 10.6666 11.7533 11.06 11.9266 11.6C12.7932 10.6533 13.3333 9.38665 13.3333 7.99998C13.3333 5.76666 11.9466 3.84666 9.99325 3.06V3.33331C9.99325 4.06667 9.39325 4.66665 8.65992 4.66665H7.32659V5.99998C7.32659 6.36668 7.02659 6.66665 6.65991 6.66665H5.32658V7.99998H9.32659C9.69325 7.99998 9.99325 8.29998 9.99325 8.66665V10.6666H10.6599Z" fill="#3049AB" fill-opacity="0.8"/>
</svg>
